<svg id="Capa_1" data-name="Capa 1" xmlns="http://www.w3.org/2000/svg" viewBox="0 0 576 627.09"><defs><style>.cls-1{fill:none;stroke:#cecccc;stroke-width:2px;}.cls-1,.cls-2{stroke-miterlimit:10;}.cls-2{fill:#d3d7d4;stroke:#ffffff;stroke-width:3px;}</style></defs><title>PERU</title><path class="cls-1" d="M63.73,195.81l-.79-6.73Q64.4,185,65.84,181l12.42-8.87L86,166.39l4.45-6.14,6.09-1.82,6.56-5.68H112l2.58,6.37v7.5l-3.75,2.5-5.62,1.59-4,2.5,2.34,3.64,2.81,3.19-2.11,3.18,1.64,3,4,.22,7.26-5.45,5.86,1.59,8.43,3.86,14.29.91,4.22,8.87,8.9,6.82h10.31l4.45-3.63,1.87-6.14,6.8-3.64,3-1.14.94-5a12.06,12.06,0,0,1,1.08-5.37,12.35,12.35,0,0,1,2.9-4l1.23-7.22,6.07-5.37c.53-2.93,1.07-5.85,1.61-8.78l3-3.18,5.86-3.19,8.78-7.16,15.58-6.48L245.3,130l29.81-7.45,25.65-14.66L326.24,87a77.25,77.25,0,0,1,4.31-12.36c1.13-2.53,2.32-4.83,3.51-6.91l4.57,1.54A3.91,3.91,0,0,0,340.91,68a3.52,3.52,0,0,0,.79-1.71l-2.81-4.69-.35-3.84,1.93-2.21-1.05-3.24a10.39,10.39,0,0,1-3.16-.34,10,10,0,0,1-3-1.37,8.59,8.59,0,0,1-2.55-2.39,8.12,8.12,0,0,1-1-1.87l-1.58-3.41-4.05-1,.36-2.72,3.86.68L337,41.21l6.68-4.09a26.88,26.88,0,0,1,11.07,6.25l5.85-.91a9.09,9.09,0,0,1,2.49,1.74,8.66,8.66,0,0,1,1.73,2.36v2.27A15.95,15.95,0,0,1,375.09,52a27.55,27.55,0,0,1,2.37,2.5,29.67,29.67,0,0,1,2.2,3.07,38.87,38.87,0,0,1,2,3.53l3.75,3.18a6.75,6.75,0,0,0-.12,4.29,6.63,6.63,0,0,0,1.29,2.31l10.07,2.73,6.33,5,10.07.23,8.2,10.68a8.66,8.66,0,0,0-.82,2.16,7.89,7.89,0,0,0-.11,2.85,17.55,17.55,0,0,0,6.55,3.63,13.86,13.86,0,0,0,2.7-.42,14.39,14.39,0,0,0,3.4-1.39,10,10,0,0,1,3.35,2.26,10.73,10.73,0,0,1,2.74,8.2L436,111.59a5.55,5.55,0,0,0,1.88,4.09c.63-.08,4.4-.55,7.14,1.94a7.28,7.28,0,0,1,1.76,2.44l13.35-3.47,14.76,3.47a70.8,70.8,0,0,1,10.63-3.13c2.2-.46,4.29-.79,6.24-1a20.13,20.13,0,0,1,3.69-4.86,20.74,20.74,0,0,1,5-3.55c.62,1.21,1.25,2.42,1.87,3.64a36.65,36.65,0,0,1,6,.17,36.26,36.26,0,0,1,5.27,1l1.87,3.19,10.08-1.14,12.65-3.87,13.59,5.23,8.43,4.38c1.64-.74,1.87,0,1.87,0h1.17l5.16,3.13,7.5-1.59c-3.22,5.06-6.71,10.27-10.52,15.58-6.58,9.18-13.23,17.47-19.71,24.89.88.46,1.84.91,2.87,1.34a37.5,37.5,0,0,0,5.8,1.85l8-2.73a20.79,20.79,0,0,1,8.2,8.18,24.65,24.65,0,0,0,2.46,2.42,26.27,26.27,0,0,0,6.21,4l-1.88,4.55a24.44,24.44,0,0,1-8.37-.48,24,24,0,0,1-4.51-1.57q-1.07-2.27-2.11-4.55l-11.95,1.6L541,175.26a24.36,24.36,0,0,1-9.61,8.19l-14.76,3.64-23.66,2.27-14.52,7.73a66.74,66.74,0,0,0-19.21,11.14,19,19,0,0,0-8.91,4.55c-6.53,6.08-5.75,14.71-5.62,15.92l-12.18,10,6.56,14.1-15.46,9.1-13.83,5-2.11,9.55,2.11,5.46-9.6,1.82-2.81,5.68,7,6.14,5.16,1.37.94,3.41-3.75,1.14,1.64,2.5,6.09,5.23,4,8.18,5.86,3,3.75,7.05,8.66,6.37,7,5.91-10.07,11.86,39.12,5.65,1.88,8,3.51,7.5h42.17L551.5,354l-1.87,52.3h47.09l39.82,51.17-8,10.23-.47,15.46-4.69,9.33-3.51,6.59,3.51,10.23,3.05,6.37L621.08,518l-1.87,5.23a43.1,43.1,0,0,0-6.47,5,42.43,42.43,0,0,0-6.18,7.25l-.24,7.95,9.84,8.87a27.36,27.36,0,0,0-7,5.18,26.23,26.23,0,0,0-5.38,8q2.81,6.48,5.62,13l12.88,10.46v4.55l-2.34,9.1a48.74,48.74,0,0,0-8.4,5.82,47.14,47.14,0,0,0-7.06,7.59,29.07,29.07,0,0,0-5.24,2.31,28.27,28.27,0,0,0-5.3,3.83,15.79,15.79,0,0,0,1.34,1.71,17.12,17.12,0,0,0,4.51,3.52,8.54,8.54,0,0,1-.11,2.45,9.1,9.1,0,0,1-.82,2.33l-8.91,6.14a3.65,3.65,0,0,0-2.22.4,3.62,3.62,0,0,0-1.76,2.33,8.44,8.44,0,0,1,3.28,8,20.34,20.34,0,0,1-3.37,6.93,21.07,21.07,0,0,1-5.53,5.12l-20.15,1.13q-11.42-6.6-22.81-13.24l-5.27-3.07L515.19,636a17.07,17.07,0,0,0-.59-6.11,16.86,16.86,0,0,0-1.05-2.75,26.92,26.92,0,0,1-5-2.79,25.74,25.74,0,0,1-3.19-2.67l-11-.91-14.29-8.64-15-8.87-14.29-2.28-27.17-11.36-19.45-4.78-11-7.73-28.58-10.69-17.57-7a64.46,64.46,0,0,0-16.17-14.78,58.11,58.11,0,0,0-5.27-4.32,60.92,60.92,0,0,0-16.17-8.36c-1.92-3-3.62-5.49-4.92-7.33-3.61-5.15-4.95-6.53-6.32-7.67a24.23,24.23,0,0,0-5.45-3.42c-.47-2.5-.93-5-1.4-7.5v-3.58a5.43,5.43,0,0,0,2.1,0,5.92,5.92,0,0,0,3.69-2.56V488.9a66.72,66.72,0,0,1-12.29-12.45c-1.81-2.4-2.84-4.11-4.57-6.83-2.72-4.26-6.74-10.34-12.13-17.73L257.54,444a11.53,11.53,0,0,1-6.76-.25,11.07,11.07,0,0,1-3.78-2.31l.52-4.94,5.63-3.92a39.76,39.76,0,0,0-2.81-5.12,41.12,41.12,0,0,0-3.52-4.61,30.59,30.59,0,0,1-10.72-3.66,30.05,30.05,0,0,1-3.86-2.65,11.33,11.33,0,0,1-.18-2.55,11.17,11.17,0,0,1,.71-3.41,62.83,62.83,0,0,0-5.36-10,114.44,114.44,0,0,0-8.35-10.15,57.72,57.72,0,0,1-9.49-11.68,56.71,56.71,0,0,1-5.27-11.17L202.19,362a21.4,21.4,0,0,1-2.63-3.92,20.82,20.82,0,0,1-1.94-5.46,14.86,14.86,0,0,1-3.25-3.24c-1.41-1.94-1.67-3.35-3.42-5.2a13.11,13.11,0,0,0-2.11-1.79L182,329.61l-.88-5.63-6.5-4.78a22.3,22.3,0,0,0-6.86-10.06l-15.63-11.26a26.28,26.28,0,0,0-5.45-8.35l-4.92-9.89a98.8,98.8,0,0,0-7.73-7.76c-2.23-2-4.41-3.79-6.5-5.38a25.9,25.9,0,0,0-6.77-6.65,26.26,26.26,0,0,0-6.76-3.24l-16.34-7.5a15,15,0,0,1-2.9.94,13.77,13.77,0,0,1-3.61.25L78.67,243a8.43,8.43,0,0,1-3.87-1.45A8,8,0,0,1,72,238l.62-2.3,1.67-1.45a11.19,11.19,0,0,0,5.09-.85,11.33,11.33,0,0,0,5.8-5.8A14.32,14.32,0,0,0,82.53,221a15,15,0,0,0-4.56-4.1,31.58,31.58,0,0,1-9.67-4.26l1.58-3.75L74.1,206a24.34,24.34,0,0,0-3.51-5A24.8,24.8,0,0,0,63.73,195.81Z" transform="translate(-61.81 -36.04)"/><path class="cls-2" d="M74.68,235.17a11.37,11.37,0,0,0,6.44-1.55,10.77,10.77,0,0,0,4.45-5.1,14.26,14.26,0,0,0-2.44-6.38,15,15,0,0,0-4.76-4.37A30.75,30.75,0,0,1,73.14,216a31.72,31.72,0,0,1-4.44-2.44l1.58-3.75,4.22-2.9a24.27,24.27,0,0,0-5.42-6.8,24.82,24.82,0,0,0-5-3.35L63.34,190l2.9-8.13,11.36-8.11.24,2.77,2.46,1.93,14.64-.68,6.68-3.64a30.08,30.08,0,0,0,2.09,3.25,31.53,31.53,0,0,0,3.06,3.57l-2.11,3.19,1.64,2.95,4,.23,7.26-5.46,5.86,1.6,8.43,3.86,14.29.91,4.22,8.87,8.9,6.82a28.49,28.49,0,0,1-2.3,3.17,26.94,26.94,0,0,1-2.62,2.74l-.35,2.73,2.69,3.53a15.62,15.62,0,0,1,.15,2.17,16.55,16.55,0,0,1-.26,2.94L153,224l-.12,7.73,2.93,3.41a14.93,14.93,0,0,1-2.19,1.53,16.43,16.43,0,0,1-2.61,1.2c-2.25-1-4.59-2.09-7-3.33-2.12-1.08-4.12-2.18-6-3.27a30,30,0,0,0-4-4.66,31,31,0,0,0-5.73-4.32,3.72,3.72,0,0,0-.94,1.34c-.5,1.25,0,2.11-.22,3.62a5.72,5.72,0,0,1-.84,2.09l-10.19,6.48a12.12,12.12,0,0,0-3.78.64,11.78,11.78,0,0,0-3.83,2.2,18.7,18.7,0,0,0-3.11,3.26c-2.33,3.15-2.51,5.58-5,7.14A7.48,7.48,0,0,1,98,250a14,14,0,0,1-6.5,1.19l-12.47-7.33a8.49,8.49,0,0,1-4.24-1.73,8,8,0,0,1-2.44-3.22,3.86,3.86,0,0,1,.62-2.3A3.9,3.9,0,0,1,74.68,235.17Z" transform="translate(-61.81 -36.04)"/></svg>