<svg id="Capa_1" data-name="Capa 1" xmlns="http://www.w3.org/2000/svg" viewBox="0 0 668.77 685.51"><defs><style>.cls-1{fill:none;stroke:#000000;stroke-miterlimit:10;stroke-width:2px;}</style></defs><title>un</title><polygon class="cls-1" points="28.43 52.31 35.69 50.38 47.02 40.15 52.24 42.08 59.79 29.37 67.05 27.71 79.54 10.57 93.19 3.11 100.16 11.4 113.8 14.16 116.71 21.63 116.71 27.71 132.1 27.71 144.59 33.24 168.98 27.71 188.14 30.2 196.56 33.51 203.82 33.51 213.12 42.91 225.31 43.19 244.77 26.6 255.51 4.21 266.55 1.17 272.94 12.51 279.61 11.68 279.61 37.66 284.84 34.34 291.81 39.87 304.01 33.51 308.36 41.25 319.69 36.55 306.04 56.73 286.58 75.81 278.16 89.35 278.74 110.64 296.46 120.86 315.91 114.5 327.53 105.94 332.17 96.81 342.63 93.5 352.5 82.72 360.63 74.7 362.95 62.81 389.38 64.47 403.03 70.55 411.45 81.89 431.19 93.5 444.55 92.11 465.17 104.83 465.17 112.57 477.07 120.86 489.85 123.07 503.79 117.82 512.21 116.16 530.51 104.55 543.86 112.57 552.87 125.28 560.41 131.37 569.71 131.37 576.97 130.26 581.03 139.38 584.81 145.19 578.42 149.33 579.87 162.88 588 169.79 590.62 184.72 594.39 192.46 604.26 210.42 608.62 222.59 618.2 225.76 624.88 242.35 635.48 242.35 649.71 264.88 660.16 264.88 665.97 264.88 667.57 269.44 655.66 277.46 656.97 290.59 647.1 288.93 646.08 300.68 638.53 309.66 626.91 316.43 625.9 324.86 616.02 332.6 618.06 339.38 625.61 348.5 623.28 354.58 621.98 362.87 628.8 369.37 632 380.29 635.77 385.95 638.24 401.98 640.56 413.87 645.06 422.3 647.24 430.73 642.16 434.05 630.54 435.02 616.46 433.91 608.91 433.08 610.22 440.82 613.85 443.72 614.86 451.33 616.02 459.76 614.43 470.26 613.26 478.69 608.91 484.91 608.91 508.27 615.88 516.56 620.82 530.25 625.32 537.43 627.49 543.51 622.85 547.66 618.35 556.37 607.89 559.82 602.52 566.59 588.73 558.58 577.11 549.73 564.58 549.96 560.13 555.31 544.06 555.86 538.44 539.46 536.7 523.61 534.96 516.24 521.79 526.38 512.7 528.22 502.82 524.72 500.89 513.48 506.31 488.96 494.69 483.07 489.27 466.12 476.11 472.75 462.94 438.84 455.2 414.52 434.29 431.47 429.06 453.4 426.94 472.56 422.48 495.23 378.54 541.3 349.5 543.33 325.11 553.1 304.97 570.79 224.05 684.3 173.33 665.14 147.78 641.92 119.32 623.67 70.54 594.93 66.47 583.87 58.92 572.81 58.34 537.98 67.63 525.27 78.67 524.72 77.51 509.24 92.03 516.42 98.99 524.16 120.48 527.48 139.07 519.74 150.68 495.42 152.43 456.72 132.68 419.12 92.03 376.55 79.83 366.95 69.38 369.92 64.73 355.55 50.79 343.19 42.66 338.41 51.37 330.12 52.53 320.72 49.05 315.19 57.18 306.34 53.69 301.37 56.02 294.18 68.21 296.94 78.67 295.84 84.47 285.33 79.25 263.77 59.5 247.19 21.75 200.75 1.43 176.42 11.88 168.13 16.52 146.57 15.94 132.2 7.81 120.59 15.94 108.98 24.07 106.77 27.27 75.81 24.07 60.88 28.43 52.31"/></svg>